<svg id="Layer_1" data-name="Layer 1" xmlns="http://www.w3.org/2000/svg" viewBox="0 0 39.33 39.33"><defs><style>.cls-1{fill:#3B3B3B;}</style></defs><title>icons_merchant_together</title><path class="cls-1" d="M32,3.39h2.62a1,1,0,0,1,1,1v10.9a1,1,0,0,1-1,1H32a1,1,0,0,1-1-1V4.44a1,1,0,0,1,1-1Z" transform="translate(2.77 26.46) rotate(-45)"/><path class="cls-1" d="M26.14,9.12L18.48,6.86A4,4,0,0,0,13.2,9l-2.94,6.78a2.32,2.32,0,0,0,4.2,2l1.21-2.81A2.46,2.46,0,0,1,18,13.37a2.32,2.32,0,0,1,1.25.46l8.85,8.85h0l1.08,1.08a1.4,1.4,0,1,1-2,2l-3.88-3.88a0.51,0.51,0,1,0-.72.72l3.88,3.88a1.4,1.4,0,0,1-2,2l-3.83-3.83,0,0a0.51,0.51,0,0,0-.72.72l3.88,3.88a1.4,1.4,0,1,1-2,2l-3.83-3.83,0,0a0.51,0.51,0,1,0-.72.72L21,31.86a1.4,1.4,0,1,1-2,2L17.42,32.2a1.91,1.91,0,0,0-.21-2.45,2,2,0,0,0-2.58-.15,1.9,1.9,0,0,0-2.56-2.76l0-.05a1.91,1.91,0,0,0-2.65-2.65l0,0a1.91,1.91,0,0,0-2.65-2.65L1.06,15.81a0.51,0.51,0,0,0-.72.72l5.6,5.6-0.65.65L4.15,23.91a1.91,1.91,0,0,0,2.7,2.7h0a1.91,1.91,0,0,0,2.7,2.7,1.9,1.9,0,0,0,2.55,2.83,2,2,0,0,0,.15,2.58,1.91,1.91,0,0,0,2.7,0l1.13-1.13,0.64-.64,1.61,1.61a2.39,2.39,0,0,0,4.1-2,2.41,2.41,0,0,0,2.73-2.39,2.43,2.43,0,0,0,0-.31,2.41,2.41,0,0,0,2.73-2.39,2.44,2.44,0,0,0,0-.31,2.44,2.44,0,0,0,.31,0A2.42,2.42,0,0,0,29.86,23L28.78,22,34,16.83Z"/></svg>